<svg width="100%" viewBox="0 0 680 920" xmlns="http://www.w3.org/2000/svg" role="img">
<title>World Bank Economic Intelligence Platform architecture</title>
<desc>Data flows from the World Bank API through ingestion, dbt transformation, and into PostgreSQL marts. From there, an embedding pipeline populates Qdrant for semantic search, while Redis caches metadata and conversation history. A FastAPI service routes natural language questions to SQL, semantic search, or both, calling a local LLaMA 3.1 model for answer generation. A Streamlit chat UI sits on top. Apache Airflow orchestrates the daily batch pipeline.</desc>

<defs>
<marker id="arrow" viewBox="0 0 10 10" refX="8" refY="5" markerWidth="6" markerHeight="6" orient="auto-start-reverse">
<path d="M2 1L8 5L2 9" fill="none" stroke="#5F5E5A" stroke-width="2" stroke-linecap="round" stroke-linejoin="round"/>
</marker>
<marker id="arrow-accent" viewBox="0 0 10 10" refX="8" refY="5" markerWidth="6" markerHeight="6" orient="auto-start-reverse">
<path d="M2 1L8 5L2 9" fill="none" stroke="#185FA5" stroke-width="2" stroke-linecap="round" stroke-linejoin="round"/>
</marker>
</defs>

<style>
  .box { fill: #F1EFE8; stroke: #5F5E5A; }
  .box-accent { fill: #E6F1FB; stroke: #185FA5; }
  .th { font-family: -apple-system, "Segoe UI", Helvetica, Arial, sans-serif; font-size: 14px; font-weight: 500; fill: #2C2C2A; }
  .ts { font-family: -apple-system, "Segoe UI", Helvetica, Arial, sans-serif; font-size: 12px; font-weight: 400; fill: #5F5E5A; }
  .th-accent { fill: #042C53; }
  .ts-accent { fill: #0C447C; }
  .icon { fill: none; stroke: #5F5E5A; stroke-width: 1.1; }
  .icon-accent { fill: none; stroke: #185FA5; stroke-width: 1.1; }
  .arr { stroke: #5F5E5A; stroke-width: 1; fill: none; }
  .arr-dash { stroke: #888780; stroke-width: 1; fill: none; stroke-dasharray: 4 4; }
</style>

<!-- Airflow -->
<g>
<rect class="box" x="20" y="20" width="150" height="56" rx="6" stroke-width="0.5"/>
<circle class="icon" cx="40" cy="38" r="7"/>
<line class="icon" x1="40" y1="38" x2="40" y2="33" stroke-linecap="round"/>
<line class="icon" x1="40" y1="38" x2="43" y2="40" stroke-linecap="round"/>
<text class="th" x="102" y="42">Airflow</text>
<text class="ts" x="100" y="62" text-anchor="middle">Daily 6am UTC</text>
</g>
<line class="arr-dash" x1="95" y1="76" x2="95" y2="120"/>
<line class="arr-dash" x1="95" y1="120" x2="236" y2="120" marker-end="url(#arrow)"/>
<text class="ts" x="95" y="104" text-anchor="middle">orchestrates</text>

<!-- World Bank API -->
<g>
<rect class="box" x="250" y="20" width="180" height="44" rx="6" stroke-width="0.5"/>
<path class="icon" d="M276 38a5 5 0 0 1 9-3a4 4 0 0 1 6 4a4 4 0 0 1 -1 8h-13a4 4 0 0 1 -1-9z"/>
<text class="th" x="305" y="46">World Bank API</text>
</g>
<line class="arr" x1="340" y1="64" x2="340" y2="100" marker-end="url(#arrow)"/>

<!-- Ingestion -->
<g>
<rect class="box" x="240" y="100" width="200" height="56" rx="6" stroke-width="0.5"/>
<circle class="icon" cx="266" cy="120" r="6"/>
<circle cx="266" cy="120" r="2" fill="#5F5E5A"/>
<line class="icon" x1="266" y1="112" x2="266" y2="114" stroke-width="1.3"/>
<line class="icon" x1="266" y1="126" x2="266" y2="128" stroke-width="1.3"/>
<line class="icon" x1="258" y1="120" x2="260" y2="120" stroke-width="1.3"/>
<line class="icon" x1="272" y1="120" x2="274" y2="120" stroke-width="1.3"/>
<text class="th" x="290" y="124">Ingestion service</text>
<text class="ts" x="340" y="144" text-anchor="middle">Python + FastAPI</text>
</g>
<line class="arr" x1="340" y1="156" x2="340" y2="192" marker-end="url(#arrow)"/>

<!-- Postgres raw -->
<g>
<rect class="box" x="220" y="192" width="240" height="44" rx="6" stroke-width="0.5"/>
<g transform="translate(246,206)">
<ellipse class="icon" cx="6" cy="3" rx="6" ry="2.4"/>
<path class="icon" d="M0 3v9a6 2.4 0 0 0 12 0V3"/>
</g>
<text class="th" x="270" y="218">PostgreSQL: raw</text>
</g>
<line class="arr" x1="340" y1="236" x2="340" y2="272" marker-end="url(#arrow)"/>

<!-- dbt -->
<g>
<rect class="box" x="240" y="272" width="200" height="56" rx="6" stroke-width="0.5"/>
<circle class="icon" cx="266" cy="292" r="6"/>
<circle cx="266" cy="292" r="2" fill="#5F5E5A"/>
<line class="icon" x1="266" y1="284" x2="266" y2="286" stroke-width="1.3"/>
<line class="icon" x1="266" y1="298" x2="266" y2="300" stroke-width="1.3"/>
<line class="icon" x1="258" y1="292" x2="260" y2="292" stroke-width="1.3"/>
<line class="icon" x1="272" y1="292" x2="274" y2="292" stroke-width="1.3"/>
<text class="th" x="290" y="296">dbt</text>
<text class="ts" x="340" y="314" text-anchor="middle">Staging, intermediate, marts</text>
</g>
<line class="arr" x1="340" y1="328" x2="340" y2="364" marker-end="url(#arrow)"/>

<!-- Postgres marts -->
<g>
<rect class="box" x="180" y="364" width="320" height="44" rx="6" stroke-width="0.5"/>
<g transform="translate(206,378)">
<ellipse class="icon" cx="6" cy="3" rx="6" ry="2.4"/>
<path class="icon" d="M0 3v9a6 2.4 0 0 0 12 0V3"/>
</g>
<text class="th" x="230" y="390">PostgreSQL: marts.economic_indicators</text>
</g>

<line class="arr" x1="260" y1="408" x2="170" y2="444" marker-end="url(#arrow)"/>
<line class="arr" x1="420" y1="408" x2="510" y2="444" marker-end="url(#arrow)"/>

<!-- Embeddings -->
<g>
<rect class="box" x="50" y="444" width="220" height="56" rx="6" stroke-width="0.5"/>
<rect class="icon" x="68" y="458" width="14" height="14" rx="2"/>
<line class="icon" x1="71" y1="458" x2="71" y2="455" stroke-width="0.9"/>
<line class="icon" x1="79" y1="458" x2="79" y2="455" stroke-width="0.9"/>
<line class="icon" x1="71" y1="472" x2="71" y2="475" stroke-width="0.9"/>
<line class="icon" x1="79" y1="472" x2="79" y2="475" stroke-width="0.9"/>
<text class="th" x="92" y="468">Embedding pipeline</text>
<text class="ts" x="160" y="486" text-anchor="middle">sentence-transformers</text>
</g>
<line class="arr" x1="160" y1="500" x2="160" y2="536" marker-end="url(#arrow)"/>

<!-- Qdrant -->
<g>
<rect class="box" x="50" y="536" width="220" height="44" rx="6" stroke-width="0.5"/>
<path d="M70 549l-6 8h5l-2 7l7-9h-5z" fill="#5F5E5A" stroke="none"/>
<text class="th" x="92" y="562">Qdrant: vectors</text>
</g>

<!-- Redis -->
<g>
<rect class="box" x="410" y="444" width="220" height="56" rx="6" stroke-width="0.5"/>
<path d="M430 457l-6 8h5l-2 7l7-9h-5z" fill="#5F5E5A" stroke="none"/>
<text class="th" x="452" y="468">Redis</text>
<text class="ts" x="520" y="486" text-anchor="middle">Metadata, conversation cache</text>
</g>
<line class="arr" x1="520" y1="500" x2="520" y2="536" marker-end="url(#arrow)"/>

<!-- FastAPI accent box -->
<g>
<rect class="box-accent" x="40" y="630" width="600" height="170" rx="14" stroke-width="0.5"/>
<circle class="icon-accent" cx="280" cy="654" r="6"/>
<circle cx="280" cy="654" r="2" fill="#185FA5"/>
<line class="icon-accent" x1="280" y1="646" x2="280" y2="648" stroke-width="1.3"/>
<line class="icon-accent" x1="280" y1="660" x2="280" y2="662" stroke-width="1.3"/>
<line class="icon-accent" x1="272" y1="654" x2="274" y2="654" stroke-width="1.3"/>
<line class="icon-accent" x1="286" y1="654" x2="288" y2="654" stroke-width="1.3"/>
<text class="th th-accent" x="302" y="658">FastAPI</text>
<text class="ts ts-accent" x="340" y="680" text-anchor="middle">Query routing and answer generation</text>
</g>

<line class="arr" x1="160" y1="580" x2="160" y2="690" marker-end="url(#arrow)"/>
<line class="arr" x1="520" y1="536" x2="520" y2="690" marker-end="url(#arrow)"/>

<!-- SQL route -->
<g>
<rect class="box-accent" x="70" y="692" width="160" height="44" rx="6" stroke-width="0.5"/>
<g transform="translate(90,706)">
<ellipse class="icon-accent" cx="4" cy="2" rx="4" ry="1.6" stroke-width="0.9"/>
<path class="icon-accent" d="M0 2v7a4 1.6 0 0 0 8 0V2" stroke-width="0.9"/>
</g>
<text class="th th-accent" x="110" y="718">SQL route</text>
</g>
<!-- Hybrid route -->
<g>
<rect class="box-accent" x="260" y="692" width="160" height="44" rx="6" stroke-width="0.5"/>
<path class="icon-accent" d="M280 705 L286 711 L280 717 M286 711 H294" stroke-linecap="round" stroke-linejoin="round"/>
<text class="th th-accent" x="302" y="718">Hybrid route</text>
</g>
<!-- Semantic route -->
<g>
<rect class="box-accent" x="450" y="692" width="160" height="44" rx="6" stroke-width="0.5"/>
<path d="M470 705l-5 7h4l-1.5 6l6-7.5h-4z" fill="#185FA5" stroke="none"/>
<text class="th th-accent" x="492" y="718">Semantic route</text>
</g>

<line class="arr" x1="150" y1="736" x2="280" y2="764" marker-end="url(#arrow)"/>
<line class="arr" x1="340" y1="736" x2="340" y2="764" marker-end="url(#arrow)"/>
<line class="arr" x1="530" y1="736" x2="400" y2="764" marker-end="url(#arrow)"/>

<!-- LLaMA -->
<g>
<rect class="box-accent" x="250" y="764" width="180" height="44" rx="6" stroke-width="0.5"/>
<rect class="icon-accent" x="268" y="776" width="14" height="14" rx="2"/>
<line class="icon-accent" x1="271" y1="776" x2="271" y2="773" stroke-width="0.9"/>
<line class="icon-accent" x1="279" y1="776" x2="279" y2="773" stroke-width="0.9"/>
<line class="icon-accent" x1="271" y1="790" x2="271" y2="793" stroke-width="0.9"/>
<line class="icon-accent" x1="279" y1="790" x2="279" y2="793" stroke-width="0.9"/>
<text class="th th-accent" x="302" y="790">LLaMA 3.1 8B</text>
</g>

<line class="arr" x1="340" y1="808" x2="340" y2="844" marker-end="url(#arrow)"/>

<!-- Streamlit -->
<g>
<rect class="box" x="240" y="844" width="200" height="56" rx="6" stroke-width="0.5"/>
<path class="icon" d="M266 862h16a3 3 0 0 1 3 3v6a3 3 0 0 1 -3 3h-7l-5 4v-4h-4a3 3 0 0 1 -3-3v-6a3 3 0 0 1 3-3z"/>
<text class="th" x="296" y="868">Streamlit</text>
<text class="ts" x="340" y="886" text-anchor="middle">Chat interface</text>
</g>

<!-- Legend -->
<rect x="40" y="908" width="12" height="8" rx="2" class="box" stroke-width="0.5"/>
<text class="ts" x="58" y="916">Data pipeline</text>
<rect x="180" y="908" width="12" height="8" rx="2" class="box-accent" stroke-width="0.5"/>
<text class="ts" x="198" y="916">AI / query layer</text>
</svg>
